<svg width="300" height="251" viewBox="0 0 300 251" fill="none" xmlns="http://www.w3.org/2000/svg">
<path d="M149.679 185.591C198.917 122.963 246.837 62.0131 295.335 0.326172C300.156 5.52864 299.891 10.6993 299.894 15.7021C299.922 65.9555 299.811 116.209 300 166.462C300.028 174.026 297.576 180.104 292.948 185.842C278.228 204.092 263.713 222.509 249.077 240.827C240.573 251.471 239.239 251.324 232.245 239.309C230.935 237.058 229.624 234.807 228.314 232.556C222.728 222.72 217.947 214.307 213.153 205.902C203.238 188.519 203.955 185.512 222.172 171.751C231.281 180.123 234.039 193.473 243.971 202.91C258.619 185.516 276.014 171.763 273.19 145.399C270.912 124.131 272.729 102.423 272.729 80.6699C265.446 80.6783 263.68 85.9599 260.905 89.4326C227.449 131.301 194.155 173.3 160.848 215.287C149.561 229.515 149.647 229.505 138.74 215.752C105.436 173.759 72.1271 131.77 38.6973 89.8779C35.8362 86.2926 33.7643 81.5427 28.6855 80.3477C25.7198 82.19 25.9873 85.0039 25.9775 87.5078C25.8828 111.703 25.8785 135.898 25.8701 160.094C25.8685 164.699 27.1653 168.876 30.0762 172.534C38.0824 182.597 46.0472 192.692 54.3848 203.226C65.641 193.388 68.2455 180.005 77.5273 170.323C83.8884 174.902 87.6265 181.366 92.127 187.089C93.8811 189.32 94.0102 191.997 92.6045 194.461C81.9909 213.067 71.3172 231.638 60.7324 250.098C53.1809 247.458 51.0416 241.861 47.6631 237.68C33.3952 220.02 19.4432 202.105 5.30176 184.343C2.20367 180.451 0.0854359 176.452 0.0888672 171.22C0.125942 116.5 0.0181198 61.7787 0 7.05859C-0.000514445 5.30149 0.530564 3.54404 3.68164 0C51.9006 61.2959 100.12 122.592 149.679 185.591ZM149.268 49.4111C154.146 50.3746 155.235 54.2829 157.076 57.3594C166.221 72.6418 175.264 87.9856 184.353 103.302C186.494 106.911 188.735 110.699 185.119 114.459C180.571 119.188 177.094 125.636 170.035 126.899C166.778 127.483 165.691 123.421 164.038 121.036C159.269 114.155 156.914 105.588 149.45 99.6309C143.08 105.067 139.824 112.217 136.447 119.003C131.849 128.242 127.007 129.76 120.339 121.247C111.896 114.365 111.075 108.29 116.475 100.12C125.672 86.2034 133.885 71.6339 142.464 57.3105C144.35 54.1608 145.892 50.7529 149.268 49.4111Z" fill="black"/>
</svg>
